<!DOCTYPE svg PUBLIC "-//W3C//DTD SVG 1.1//EN" "http://www.w3.org/Graphics/SVG/1.1/DTD/svg11.dtd">
<!-- Uploaded to: SVG Repo, www.svgrepo.com, Transformed by: SVG Repo Mixer Tools -->
<svg version="1.1" id="Layer_1" xmlns="http://www.w3.org/2000/svg" xmlns:xlink="http://www.w3.org/1999/xlink" viewBox="0 0 512 512" xml:space="preserve" width="800px" height="800px" fill="#000000">
<g id="SVGRepo_bgCarrier" stroke-width="0"/>
<g id="SVGRepo_tracerCarrier" stroke-linecap="round" stroke-linejoin="round"/>
<g id="SVGRepo_iconCarrier"> <g> <rect x="422.824" y="35.6" style="fill:#415E72;" width="21.56" height="4"/> <polygon style="fill:#415E72;" points="438.24,48.52 435.416,45.696 443.496,37.6 435.416,29.512 438.24,26.688 449.16,37.6 "/> </g> <path style="fill:#ecfff8;" d="M4,454.552V105.808h504v303.824c-0.024,24.8-20.12,44.896-44.92,44.92H4z"/> <path style="fill:#AAC1CE;" d="M504,109.8v299.832c-0.024,22.592-18.328,40.896-40.92,40.92H8V109.8H504 M512,101.8H0v356.752 h463.08c27.016,0,48.92-21.904,48.92-48.92l0,0V101.8z"/> <path style="fill:#415E72;" d="M31.92,37.8h448.16c17.632,0,31.92,14.288,31.92,31.92v0.008v32.184H0V69.728 C-0.008,52.096,14.28,37.808,31.912,37.8C31.912,37.8,31.92,37.8,31.92,37.8z"/> <g> <circle style="fill:#CFDCE5;" cx="44.192" cy="69.856" r="8.928"/> <circle style="fill:#CFDCE5;" cx="70.968" cy="69.856" r="8.928"/> <circle style="fill:#CFDCE5;" cx="97.736" cy="69.856" r="8.928"/> </g> <polygon style="fill:#ecfff8;" points="460.928,85.536 143.088,85.536 159.088,54.184 460.928,54.184 "/> <g> <path style="fill:#415E72;" d="M171.92,63.584l1.312,5.696c0.28,1.336,0.56,2.704,0.8,4.072h0.048 c0.256-1.368,0.672-2.76,1.032-4.048l1.6-5.72h2.576l1.6,5.6c0.384,1.464,0.72,2.832,1,4.192h0.056 c0.2-1.368,0.496-2.736,0.8-4.192l1.392-5.6h3.112l-3.936,12.544h-2.936l-1.496-5.104c-0.384-1.312-0.704-2.648-0.952-4h-0.056 c-0.232,1.352-0.552,2.688-0.952,4l-1.6,5.104h-2.96l-3.712-12.544L171.92,63.584z"/> <path style="fill:#415E72;" d="M192.272,63.584l1.312,5.696c0.28,1.336,0.56,2.704,0.8,4.072h0.016 c0.248-1.368,0.664-2.76,1.024-4.048l1.6-5.72h2.576l1.6,5.6c0.384,1.464,0.72,2.832,1,4.192h0.056 c0.2-1.368,0.496-2.736,0.8-4.192l1.392-5.6h3.12l-3.888,12.552h-2.936l-1.496-5.104c-0.384-1.312-0.704-2.648-0.952-4h-0.056 c-0.232,1.352-0.552,2.688-0.952,4l-1.6,5.104h-2.96l-3.712-12.544L192.272,63.584z"/> <path style="fill:#415E72;" d="M212.624,63.584l1.312,5.696c0.28,1.336,0.56,2.704,0.8,4.072h0.048 c0.256-1.368,0.672-2.76,1.032-4.048l1.6-5.72H220l1.6,5.6c0.384,1.464,0.72,2.832,1,4.192h0.056c0.2-1.368,0.496-2.736,0.8-4.192 l1.392-5.6H228l-4,12.552h-2.936l-1.496-5.104c-0.384-1.312-0.704-2.648-0.952-4h-0.056c-0.232,1.352-0.552,2.688-0.952,4 l-1.6,5.104h-2.96l-3.712-12.544L212.624,63.584z"/> <path style="fill:#415E72;" d="M229.136,74.352c-0.056-1.064,0.76-1.976,1.832-2.04c0.04,0,0.088,0,0.128,0 c1.128,0.072,1.976,1.04,1.912,2.16c-0.064,1.024-0.88,1.84-1.912,1.912c-1.064,0.016-1.944-0.832-1.96-1.896 C229.136,74.448,229.136,74.4,229.136,74.352z"/> </g> <path style="fill:#32BEA6;" d="M418.904,422.704L418.904,422.704l-48.8-48.744L359.4,363.264 c-12.344-11.968-32.056-11.656-44.024,0.688c-11.712,12.088-11.704,31.296,0.024,43.368l18.48,18.464l0.072,0.088l18.72,18.704 l40.8,40.736l44-44.056L418.904,422.704z"/> <ellipse style="fill:#415E72;" cx="233.04" cy="280.96" rx="150.384" ry="150.288"/> <ellipse style="fill:#ecfff8;" cx="233.04" cy="280.96" rx="125.192" ry="125.104"/> <path style="fill:#E04F5F;" d="M233.008,393.192c-62.008-0.04-112.24-50.336-112.2-112.344s50.336-112.24,112.344-112.2 c61.976,0.04,112.2,50.296,112.2,112.272C345.256,342.912,295,393.136,233.008,393.192z M233.008,172.656 c-59.8,0.04-108.24,48.544-108.2,108.344s48.544,108.24,108.344,108.2c59.768-0.04,108.208-48.504,108.2-108.28 C341.256,221.136,292.792,172.704,233.008,172.656z"/> </g>
</svg>